# xmcd
#
# Track frame offsets:
# 150
# 15933
# 29262
# 45839
# 61227
# 79913
# 99237
# 117081
# 131917
# 153893
# 170591
# 183679
# 200622
# 225680
# 241166
# 258657
# 301825
# 319851
#
# Disc length: 4557 seconds
#
#
# Revision: 0
# Processed by: cddbd v1.5.2PL0 Copyright (c) Steve Scherf et al.
# Submitted via: FreeRIP 2.944 
#
DISCID=e211cb12
DTITLE=No Justice - Live at Billy Bob's Texas
DYEAR=2008
DGENRE=Country
TTITLE0=Never Come Back (Live)
TTITLE1=Still Missing You (Live)
TTITLE2=By My Side (Live)
TTITLE3=Shakedown (Live)
TTITLE4=Red Dress (Live)
TTITLE5=Don't Walk Away (Live)
TTITLE6=Spinning Wheel (Live)
TTITLE7=Breathe (Live)
TTITLE8=Horseshoe Lake (Live)
TTITLE9=Bend But Don't Break (Live)
TTITLE10=Twenty Four Days (Live)
TTITLE11=Who I Want to Be (Live)
TTITLE12=Three Verses (Live)
TTITLE13=Circles (Live)
TTITLE14=The Toast (Live)
TTITLE15=Only U (Live)
TTITLE16=Horseshoe Lake
TTITLE17=Spinning Wheel
EXTD=
EXTT0=
EXTT1=
EXTT2=
EXTT3=
EXTT4=
EXTT5=
EXTT6=
EXTT7=
EXTT8=
EXTT9=
EXTT10=
EXTT11=
EXTT12=
EXTT13=
EXTT14=
EXTT15=
EXTT16=
EXTT17=
PLAYORDER=
